<svg fill="#303030" width="12" height="12" id="Capa_1" enable-background="new 0 0 240.706 240.706" viewBox="0 0 240.706 240.706"  xmlns="http://www.w3.org/2000/svg">
  <path d="m190.559 240.706h-140.412c-5.544 0-10.029-4.486-10.029-10.029v-90.265h-30.089c-3.977 0-7.581-2.351-9.177-5.994-1.606-3.634-.901-7.875 1.783-10.813l110.294-120.353c1.908-2.075 4.669-3.257 7.427-3.252 2.737.006 5.47 1.183 7.363 3.252l110.353 120.353c2.684 2.929 3.389 7.179 1.783 10.813-1.596 3.644-5.201 5.994-9.177 5.994h-30.088v90.265c-.002 5.543-4.488 10.029-10.031 10.029zm-130.383-20.059h120.353v-90.265c0-5.544 4.486-10.029 10.029-10.029h17.316l-87.552-95.485-87.503 95.485h17.326c5.544 0 10.029 4.486 10.029 10.029.003 0 .003 90.265.002 90.265z"/>
</svg>
